<?xml version="1.0" encoding="utf-8"?>
<!-- Generator: Adobe Illustrator 26.0.3, SVG Export Plug-In . SVG Version: 6.00 Build 0)  -->
<svg version="1.1" xmlns="http://www.w3.org/2000/svg" xmlns:xlink="http://www.w3.org/1999/xlink" x="0px" y="0px"
	 viewBox="0 0 749.9 587" style="enable-background:new 0 0 749.9 587;" xml:space="preserve">
<style type="text/css">
	.st0{font-family:'Arial-BoldMT';}
	.st1{font-size:24px;}
	.st2{fill:#181818;}
	.st3{font-family:'ArialMT';}
	.st4{font-size:13px;}
	.st5{font-size:12px;}
	.st6{fill:#181818;fill-opacity:5.000000e-02;}
	.st7{fill:#989898;}
	.st8{fill:#0CE5EF;}
	.st9{fill:#FFFFFF;}
	.st10{fill:#888888;}
	.st11{font-size:11px;}
	.st12{enable-background:new    ;}
	.st13{letter-spacing:-3;}
	.st14{fill:none;}
</style>
<g id="exportSvg">
	<text transform="matrix(1 0 0 1 186.8863 36.5816)" class="st0 st1">BDP popular vote has been on a decline</text>
	<text transform="matrix(1 0 0 1 189.8863 56.5816)" class="st2 st3 st4">No president has gained popular vote in subsequent election since 1965.</text>
	<text transform="matrix(1 0 0 1 39.8863 100.0816)" class="st2 st0 st5">Seretse Khama - 1965</text>
	<rect x="193.5" y="81.6" class="st6" width="555.4" height="27"/>
	<rect x="193.5" y="81.6" class="st7" width="446.5" height="27"/>
	<text transform="matrix(1 0 0 1 39.8863 138.0816)" class="st2 st0 st5">Seretse Khama - 1974</text>
	<rect x="193.5" y="119.6" class="st6" width="555.4" height="27"/>
	<rect x="193.5" y="119.6" class="st7" width="425.4" height="27"/>
	<text transform="matrix(1 0 0 1 39.8863 176.0816)" class="st2 st0 st5">Seretse Khama - 1979</text>
	<rect x="193.5" y="157.6" class="st6" width="555.4" height="27"/>
	<rect x="193.5" y="157.6" class="st7" width="417.7" height="27"/>
	<text transform="matrix(1 0 0 1 39.8863 214.0816)" class="st2 st0 st5">Seretse Khama - 1969</text>
	<rect x="193.5" y="195.6" class="st6" width="555.4" height="27"/>
	<rect x="193.5" y="195.6" class="st7" width="379.3" height="27"/>
	<text transform="matrix(1 0 0 1 39.8863 252.0816)" class="st2 st0 st5">Ketumile Masire  - 1984</text>
	<rect x="193.5" y="233.6" class="st6" width="555.4" height="27"/>
	<rect x="193.5" y="233.6" class="st7" width="377.7" height="27"/>
	<text transform="matrix(1 0 0 1 39.8863 290.0816)" class="st2 st0 st5">Ketumile Masire - 1989</text>
	<rect x="193.5" y="271.6" class="st6" width="555.4" height="27"/>
	<rect x="193.5" y="271.6" class="st7" width="359.9" height="27"/>
	<text transform="matrix(1 0 0 1 39.8863 328.0816)" class="st2 st0 st5">Festus Mogae - 1999</text>
	<rect x="193.5" y="309.6" class="st6" width="555.4" height="27"/>
	<rect x="193.5" y="309.6" class="st7" width="317.1" height="27"/>
	<text transform="matrix(1 0 0 1 39.8863 366.0816)" class="st2 st0 st5">Ketumile Masire - 1994</text>
	<rect x="193.5" y="347.6" class="st6" width="555.4" height="27"/>
	<rect x="193.5" y="347.6" class="st7" width="303.8" height="27"/>
	<text transform="matrix(1 0 0 1 39.8863 404.0816)" class="st2 st0 st5">Ian Khama - 2009</text>
	<rect x="193.5" y="385.6" class="st6" width="555.4" height="27"/>
	<rect x="193.5" y="385.6" class="st7" width="296" height="27"/>
	<text transform="matrix(1 0 0 1 39.8863 442.0816)" class="st2 st0 st5">Mokgweetsi Masisi - 2019</text>
	<rect x="193.5" y="423.6" class="st6" width="555.4" height="27"/>
	<rect x="193.5" y="423.6" class="st8" width="293.2" height="27"/>
	<text transform="matrix(1 0 0 1 39.8863 480.0816)" class="st2 st0 st5">Festus Moage - 2004</text>
	<rect x="193.5" y="461.6" class="st6" width="555.4" height="27"/>
	<rect x="193.5" y="461.6" class="st7" width="287.1" height="27"/>
	<text transform="matrix(1 0 0 1 39.8863 518.0816)" class="st2 st0 st5">Ian Khama - 2014</text>
	<rect x="193.5" y="499.6" class="st6" width="555.4" height="27"/>
	<rect x="193.5" y="499.6" class="st7" width="258.2" height="27"/>
	<text transform="matrix(1 0 0 1 601.0015 99.5816)" class="st9 st3 st5">80.4%</text>
	<text transform="matrix(1 0 0 1 579.8921 137.5816)" class="st9 st3 st5">76.6%</text>
	<text transform="matrix(1 0 0 1 572.1265 175.5816)" class="st9 st3 st5">75.2%</text>
	<text transform="matrix(1 0 0 1 533.7983 213.5816)" class="st9 st3 st5">68.3%</text>
	<text transform="matrix(1 0 0 1 532.1265 251.5816)" class="st9 st3 st5">68.0%</text>
	<text transform="matrix(1 0 0 1 514.3608 289.5816)" class="st9 st3 st5">64.8%</text>
	<text transform="matrix(1 0 0 1 471.5952 327.5816)" class="st9 st3 st5">57.1%</text>
	<text transform="matrix(1 0 0 1 458.2671 365.5816)" class="st9 st3 st5">54.7%</text>
	<text transform="matrix(1 0 0 1 450.4859 403.5816)" class="st9 st3 st5">53.3%</text>
	<text transform="matrix(1 0 0 1 447.7202 441.5816)" class="st9 st3 st5">52.8%</text>
	<text transform="matrix(1 0 0 1 441.6109 479.5816)" class="st9 st3 st5">51.7%</text>
	<text transform="matrix(1 0 0 1 412.7202 517.5816)" class="st9 st3 st5">46.5%</text>
	<text transform="matrix(1 0 0 1 79.8863 558.5816)" class="st10 st3 st11">Chart:</text>
	<text transform="matrix(1 0 0 1 109.8409 558.5816)" class="st12"><tspan x="0" y="0" class="st10 st3 st11 st13">​</tspan><tspan x="0" y="0" class="st10 st3 st11"> </tspan><tspan x="3.1" y="0" class="st10 st3 st11 st13">​</tspan></text>
	<text transform="matrix(1 0 0 1 112.897 558.5816)" class="st10 st3 st11">Joel Konopo</text>
	<text transform="matrix(1 0 0 1 174.0576 558.5816)" class="st12"><tspan x="0" y="0" class="st10 st3 st11 st13">​</tspan><tspan x="0" y="0" class="st10 st3 st11"> </tspan><tspan x="3.1" y="0" class="st10 st3 st11 st13">​</tspan></text>
	<text transform="matrix(1 0 0 1 177.1138 558.5816)" class="st10 st3 st11">•</text>
	<text transform="matrix(1 0 0 1 180.9649 558.5816)" class="st12"><tspan x="0" y="0" class="st10 st3 st11 st13">​</tspan><tspan x="0" y="0" class="st10 st3 st11"> </tspan><tspan x="3.1" y="0" class="st10 st3 st11 st13">​</tspan></text>
	<text transform="matrix(1 0 0 1 184.021 558.5816)" class="st10 st3 st11">                       Source</text>
	<text transform="matrix(1 0 0 1 224.9864 558.5816)" class="st10 st3 st11">                     :  Independent Electoral Commission (Botswana)</text>
	<text transform="matrix(1 0 0 1 454.2676 558.5816)" class="st12"><tspan x="0" y="0" class="st10 st3 st11 st13">​</tspan><tspan x="0" y="0" class="st10 st3 st11"> </tspan><tspan x="3.1" y="0" class="st10 st3 st11 st13">​</tspan></text>
	<text transform="matrix(1 0 0 1 457.3238 558.5816)" class="st10 st3 st11">•</text>
	<text transform="matrix(1 0 0 1 461.1749 558.5816)" class="st12"><tspan x="0" y="0" class="st10 st3 st11 st13">​</tspan><tspan x="0" y="0" class="st10 st3 st11"> </tspan><tspan x="3.1" y="0" class="st10 st3 st11 st13">​</tspan></text>
	<text transform="matrix(1 0 0 1 525.9825 558.5816)" class="st12"><tspan x="0" y="0" class="st10 st3 st11 st13">​</tspan><tspan x="0" y="0" class="st10 st3 st11"> </tspan><tspan x="3.1" y="0" class="st10 st3 st11 st13">​</tspan></text>
	<rect x="151.4" y="96" class="st14" width="8.7" height="0"/>
</g>
<g id="ai2html-settings">
	<rect x="-450" class="st14" width="400" height="418"/>
	<text id="ai2html-settings_00000152953860481036622150000016969255674411748993_" transform="matrix(1 0 0 1 -450 10.6499)"><tspan x="0" y="0" style="font-family:'MyriadPro-Regular'; font-size:15px;">ai2html-settings</tspan><tspan x="0" y="19" style="font-family:'MyriadPro-Regular'; font-size:15px;">settings_version: 0.109.0</tspan><tspan x="0" y="38" style="font-family:'MyriadPro-Regular'; font-size:15px;">image_format: auto</tspan><tspan x="0" y="57" style="font-family:'MyriadPro-Regular'; font-size:15px;">responsiveness: fixed</tspan><tspan x="0" y="76" style="font-family:'MyriadPro-Regular'; font-size:15px;">output: one-file</tspan><tspan x="0" y="95" style="font-family:'MyriadPro-Regular'; font-size:15px;">html_output_path: /ai2html-output/</tspan><tspan x="0" y="114" style="font-family:'MyriadPro-Regular'; font-size:15px;">html_output_extension: .html</tspan><tspan x="0" y="133" style="font-family:'MyriadPro-Regular'; font-size:15px;">image_output_path: </tspan><tspan x="0" y="152" style="font-family:'MyriadPro-Regular'; font-size:15px;">local_preview_template: </tspan><tspan x="0" y="171" style="font-family:'MyriadPro-Regular'; font-size:15px;">png_number_of_colors: 128</tspan><tspan x="0" y="190" style="font-family:'MyriadPro-Regular'; font-size:15px;">jpg_quality: 60</tspan><tspan x="0" y="209" style="font-family:'MyriadPro-Regular'; font-size:15px;">headline: </tspan><tspan x="0" y="228" style="font-family:'MyriadPro-Regular'; font-size:15px;">leadin: </tspan><tspan x="0" y="247" style="font-family:'MyriadPro-Regular'; font-size:15px;">notes: </tspan><tspan x="0" y="266" style="font-family:'MyriadPro-Regular'; font-size:15px;">sources: </tspan><tspan x="0" y="285" style="font-family:'MyriadPro-Regular'; font-size:15px;">credit: </tspan></text>
</g>
</svg>
